
<svg version="1.1" xmlns="http://www.w3.org/2000/svg" xmlns:xlink="http://www.w3.org/1999/xlink" x="0px" y="0px"
	 viewBox="0 0 500 500" style="enable-background:new 0 0 500 500;" xml:space="preserve">
<g id="BACKGROUND">
	<rect style="fill:#E4F1FD;" width="500" height="500"/>
</g>
<g id="OBJECTS">
	<g>
		<defs>
			<rect id="SVGID_1_" width="500" height="500"/>
		</defs>
		<clipPath id="SVGID_00000041292263898166795930000005862134106352026785_">
			<use xlink:href="#SVGID_1_"  style="overflow:visible;"/>
		</clipPath>
		<g style="clip-path:url(#SVGID_00000041292263898166795930000005862134106352026785_);">
			<g>
				<path style="fill:#C3DBF0;" d="M421.353,181.572C371.115,126.419,273.499,59.856,185.434,48.711
					C104.09,38.412,18.71,140.84,19.723,231.398c0.72,64.355,46.56,119.934,105.879,149.825
					c69.993,35.271,117.469,0.599,182.365-4.1c40.379-2.922,91.95,38.177,141.716-15.029
					C506.392,301.45,456.037,219.653,421.353,181.572z"/>
			</g>
		</g>
		<g style="clip-path:url(#SVGID_00000041292263898166795930000005862134106352026785_);">
			<path style="fill:#CE9435;" d="M96.647,205.128c-3.374-7.656,34.137-19.808,31.703,4.084
				c-0.422,4.138-9.126,12.207-13.743,13.692C110.024,224.377,106.275,226.977,96.647,205.128z"/>
			<path style="fill:#FFFFFF;" d="M123.125,208.461l-9.258-7.406c0,0-4.629,7.406-7.777,8.888c-3.148,1.481-3.333,0.926-3.333,0.926
				s4.549,8.888,7.089,9.721C112.385,221.422,123.125,208.461,123.125,208.461z"/>
			<path style="fill:#CE9435;" d="M159.855,189.144c4.698-1.913,14.003-2.716,14.003-2.716s-2.282,2.738-3.092,4.217
				c0.236,0.181,5.499-2.18,5.499-2.18l-1.315,14.373l0,0c-0.522,8.645-4.865,17.943-4.865,17.943s-22.47-15.523-22.142-21.441
				C148.142,195.772,153.697,190.86,159.855,189.144z"/>
			<path style="fill:#FFFFFF;" d="M169.044,195.5c0.217,0.719-8.565,3.927-9.525,4.235c-2.744,0.88-5.565,1.255-8.39,1.783
				l15.559,14.812C166.688,216.331,171.451,203.462,169.044,195.5z"/>
			<path style="fill:#E7B04B;" d="M102.826,238.906c1.358-4.859,2.951-9.669,5.09-14.245c2.033-4.349,4.359-9.271,6.989-13.274
				c4.972-7.566,13.522-12.219,22.603-12.333c2.837-0.036,3.855,0.223,3.578,0.15c0.006,0.002,12.776-0.185,20.553,7.221
				c9.587,9.131,14.813,34.81,14.813,34.81c-26.087,15.38-28.514,35.736-28.514,35.736S101.212,244.683,102.826,238.906z"/>
			<path style="fill:#B66727;" d="M89.72,296.689c-0.001-0.003-0.003-0.006-0.004-0.009c7.339-2.078,14.678-4.154,22.016-6.233
				c0.788-0.223,1.605-0.777,1.916-0.05c0.28,0.655-0.307,6.751-0.392,8.642c0,5.543-1.891,12.116,1.219,17.057
				c1.203,1.911,0.703,3.87-1.211,5.228c-2.698,1.915-6.554,1.466-9.352-0.301c-2.798-1.766-4.729-4.605-6.377-7.474
				C94.45,308.173,92.08,302.422,89.72,296.689z"/>
			<path style="fill:#E7B04B;" d="M86.434,250.905c-4.293-15.076-24.749-20.631-35.883-9.193
				c-4.311,4.429-6.692,12.045-5.339,18.126c1.813,8.151,12.258,11.03,9.113,19.947C64.939,280.572,89.899,263.074,86.434,250.905z"
				/>
			<path style="fill:#CE9435;" d="M67.619,252.045c-3.564-1.577-7.988-1.132-10.966,1.595c-2.277,2.085-2.777,5.925-2.777,8.517
				c11.339-4.917,15.924,6.295,15.269,11.849c1.127-3.314,2.254-6.629,3.381-9.943C73.118,262.318,73.317,254.566,67.619,252.045z"
				/>
			<path style="fill:#E7B04B;" d="M145.344,245.123c0,0,21.473,2.724,17.363,29.425c-7.612,49.453-57.419,22.975-88.326,25.34
				c-10.69,0.818-11.902-24.828-1.253-40.186c10.649-15.358,35.057-12.202,33.409-15.358
				C106.46,244.197,145.344,245.123,145.344,245.123z"/>
			<path style="fill:#CE9435;" d="M106.537,244.344c-0.05-0.097,16.854,0.273,28.366,0.536c12.7,1.991,22.298,6.328,17.971,14.464
				c-10.355,19.468-28.361,23.884-37.072,10.563c-9.419-14.404-20.652-18.558-22.533-22.2
				C101.041,245.919,107.405,246.007,106.537,244.344z"/>
			<path style="fill:#CE9435;" d="M164.23,287.524c0.606,7.335-1.294,18.457-1.607,20.376c-0.987,6.042,5.715,9.537,2.533,14.434
				c-2.407,3.703-12.221,2.777-14.072-1.481c-1.938-4.457-4.922-16.195-6.938-17.703C142.18,301.679,163.725,266.9,164.23,287.524z"
				/>
			<path style="fill:#FFFFFF;" d="M103.285,247.535c-0.027,0.005,3.039,0.524,6.148,2.891c-5.01,12.473,15.371,24.591,15.635,24.659
				c0.063,0.016,1.204-3.298,2.13-4.965c21.902,7.794,13.887,33.143,13.887,33.143c17.775-4.999,26.756-26.95,25.459-26.268
				c-1.296,0.682-4.51,2.237-3.61,1.457c5.555-4.814,4.999-14.257,4.999-14.257s-2.592-1.296-4.13-3.156
				c-0.891-1.078-2.166-2.584-1.665-4.321c2.174-7.551,14.127-10.669,14.127-10.669s-4.814-18.516-21.095-17.663
				c-4.332,0.227-10.012-0.853-10.043-0.776c0.435,1.069,0.557,2.243,0.676,3.463c0.488,4.999-0.518,8.944-9.204,9.204
				c-7.354,0.219-9.204-4.121-9.204-9.204c0-0.636,0.064-1.257,0.187-1.857c-0.015,0.169-3.088,0.827-5.025,0.612
				C106.915,228.091,103.313,247.53,103.285,247.535z"/>
			<path style="fill:#471713;" d="M131.026,235.35c0,2.654,2.795,3.556,6.069,3.556c3.274,0,3.845-1.511,3.845-4.165
				c0-2.654-1.853-3.204-5.127-3.204C132.539,231.536,131.026,232.695,131.026,235.35z"/>
			<path style="fill:#CE9435;" d="M130.301,229.482c4.007-0.714,7.483-0.965,11.486-0.083
				C139.441,225.516,132.658,225.735,130.301,229.482z"/>
			<path style="fill:#FFFFFF;" d="M145.285,227.451c0,3.074,3.527,4.361,5.821,4.361c2.294,0,3.827-1.288,3.827-4.361
				s-3.602-5.436-5.896-5.436C146.743,222.014,145.285,224.377,145.285,227.451z"/>
			<path style="fill:#471713;" d="M146.365,226.068c0.003,2.83,1.758,5.096,3.881,5.097c2.968,0.001,2.938-4.274,2.229-6.229
				C151.135,221.24,146.362,222.028,146.365,226.068z"/>
			<path style="fill:#FFFFFF;" d="M120.436,228.468c-0.146,1.609,0.296,3.261,1.6,4.085c1.795,1.135,6.828,0.282,6.828-3.169
				c0-3.451-1.081-6.088-3.204-6.088c-1.719,0-3.444,1.004-4.349,2.452C120.839,226.503,120.526,227.477,120.436,228.468z"/>
			<path style="fill:#471713;" d="M122.53,228.249c0,2.389,1.434,4.165,3.204,4.165c1.77,0,3.204-1.937,3.204-4.326
				c0-2.389-1.435-4.326-3.204-4.326C123.964,223.763,122.53,225.86,122.53,228.249z"/>
			<path style="fill:#B66727;" d="M158.176,221.991c-0.031-5.124-6.674-8.441-10.856-5.702
				C151.903,217.06,154.907,218.677,158.176,221.991z"/>
			<path style="fill:#B66727;" d="M118.284,221.991c3.267-3.312,6.271-4.931,10.856-5.702
				C124.958,213.55,118.315,216.868,118.284,221.991z"/>
			<path style="fill:#471713;" d="M130.737,242.005c3.149,0.546,4.63-2.416,5.425-2.025c2.863,1.411,6.101,2.905,9.123,0.295
				c-0.496,1.148-1.632,1.682-2.677,2.229c-0.468,0.245-1.011,0.497-1.384,0.882c-0.56,0.577-0.988,1.305-1.655,1.773
				c-1.142,0.802-2.774,1.026-4.125,0.746c-0.656-0.136-1.281-0.401-1.834-0.779c-0.475-0.325-0.799-0.87-1.23-1.271
				c-0.446-0.414-1.024-0.523-1.573-0.76c-1.025-0.443-1.717-1.149-2.373-2.042C129.466,241.829,129.861,241.854,130.737,242.005z"
				/>
			<path style="fill:#DECB95;" d="M147.638,244.753c-3.26,2.232-6.609,5.305-10.802,5.309c-4.694,0.004-8.128-3.792-11.493-6.54
				c-1.951-1.593-5.272-3.043-8.317-2.158c0,0,3.119,2.068,4.521,4.837c2.601,5.138,7.09,9.972,13.019,10.894
				c6.798,1.057,14.173-2.369,17.455-8.468c1.41-2.62-0.175-6.035-2.642-4.881C148.755,244.039,148.183,244.381,147.638,244.753z"/>
			<path style="fill:#CE9435;" d="M141.085,199.204c2.714,0.715,8.517,2.037,14.443,8.702c7.976,8.973,12.875,24.309,20.923,33.329
				c0,0-5.225-25.679-14.813-34.81C153.861,199.018,141.091,199.205,141.085,199.204z"/>
			<path style="fill:#FFFFFF;" d="M139.071,234.59c0,0-2.573-1.462-4.897-1.564C131.85,232.923,139.071,230.516,139.071,234.59z"/>
			<path style="fill:#E7B04B;" d="M66.151,282.559c2.07-10.247,33.458,11.446,33.458,11.446s-10.554,15.738-11.167,24.125
				c-0.027,0.371-0.08,0.728-0.156,1.071c0.948,0.749,1.509,1.672,1.509,2.671c0,2.505-3.523,4.536-7.869,4.536
				c-2.244,0-6.573,0-8.795-3.333C69.992,318.366,64.081,292.806,66.151,282.559z"/>
			<path style="fill:#E7B04B;" d="M141.826,291.042c0,0-8.305,23.133-4.444,27.959c4.444,5.555,2.222,9.443-1.852,10.369
				c-3.117,0.708-5.216-0.297-9.258-1.481c-5.386-1.578-7.962-14.072-7.962-17.59c0-3.518-2.592-17.405-4.629-20.368
				C111.645,286.969,129.79,277.711,141.826,291.042z"/>
			<path style="fill:#B66727;" d="M135.438,329.463c-18.966,1.918-15.188-27.139-20.923-37.772
				C117.367,301.535,115.242,336.589,135.438,329.463z"/>
			<path style="fill:#B66727;" d="M89.766,322.89c0.922-8.97-12.047-10.024-15.778-3.422
				C79.709,315.97,86.895,316.425,89.766,322.89z"/>
			<path style="fill:#B66727;" d="M97.959,297.609c5.508-8.271,2.805-21.204-6.898-24.562
				C98.306,279.608,99.813,287.595,97.959,297.609z"/>
		</g>
		<g style="clip-path:url(#SVGID_00000041292263898166795930000005862134106352026785_);">
			<path style="fill:#8B8B8B;" d="M221.805,222.459c-4.738,6.147-7.283,16.613-6.164,30.427c1.119,13.814,6.94,28.074,6.164,45.975
				c-0.235,5.407-0.89,9.861-1.69,13.445c-0.386-0.148-0.774-0.302-1.163-0.463c-8.148-3.378-15.737-2.193-15.237,8.02
				c0.367,7.493,9.532,6.601,15.236,6.601c5.732,0,10.524-2.432,11.74-5.688c1.339-3.253,12.869-31.626,13.235-45.151
				c0.388-14.359,0.388-24.449,3.881-32.211C251.299,235.654,239.344,199.706,221.805,222.459z"/>
			<path style="fill:#8B8B8B;" d="M242.956,278.848c8.15,22.509,21.344,29.106,32.599,32.987c11.254,3.881,5.458,8.15-6.209,4.269
				c-11.667-3.881-13.971-2.717-19.404,3.493c-4.352,4.974,1.552,10.09,15.135,8.926c13.583-1.164,13.583-1.164,25.613-3.493
				c13.843-2.679,23.532-4.657,17.587-9.702c-5.945-5.045-5.945-10.478-3.616-20.18C306.989,285.446,234.806,256.34,242.956,278.848
				z"/>
			<path style="fill:#E2E4D1;" d="M231.755,155.186c0,0-1.006,39.82-4.462,47.222c-2.906,6.222-9.509,4.393-7.18,26.513
				c2.329,22.12,16.299,45.793,44.241,53.555c27.942,7.762,74.511,10.866,74.511,10.866s-23.285-39.584-38.42-53.943
				c-15.135-14.359-21.732-37.255-25.225-47.346s-8.15-55.495-8.15-55.495L231.755,155.186z"/>
			<path style="fill:#E2E4D1;" d="M246.114,225.816c-4.739,6.147-7.283,16.613-6.164,30.427c1.119,13.814,6.94,28.074,6.164,45.975
				c-0.776,17.901-6.164,25.366-6.164,25.366l14.922-3.14c0,0,12.975-31.102,13.363-45.461c0.388-14.359,0.388-24.449,3.881-32.21
				C275.608,239.011,263.653,203.064,246.114,225.816z"/>
			<path style="fill:#BBBCB1;" d="M330.281,278.374c0,0,6.578,23.339,26.87,18.794c29.47-6.601,25.279-42.553,25.279-42.553
				s8.874,34.838-17.675,50.187c-21.156,12.232-39.363-5.335-47.938-13.56C315.976,290.437,330.281,278.374,330.281,278.374z"/>
			<path style="fill:#E2E4D1;" d="M298.892,244.444c-9.392,2.781-16.691,15.719-19.497,30.737
				c-3.657,19.576,19.109,30.967,30.363,34.848s5.458,8.15-6.209,4.269c-11.667-3.881-13.971-2.716-19.404,3.493
				c-4.352,4.974,1.552,10.09,15.135,8.926c13.583-1.164,13.583-1.164,25.613-3.493c13.843-2.679,23.532-4.657,17.587-9.702
				c-5.945-5.045-5.945-10.478-3.617-20.18C341.193,283.64,325.861,236.459,298.892,244.444z"/>
			<path style="fill:#4E4E4E;" d="M255.301,322.511c0.334,4.024-5.391,7.31-12.042,7.31c-5.704,0-14.869,0.892-15.235-6.601
				c-0.5-10.213,7.088-11.398,15.237-8.02C249.403,317.747,255.087,319.926,255.301,322.511z"/>
			<path style="fill:#8B8B8B;" d="M296.574,245.357c-12.012,8.886-16.06,20.394-15.829,34.453
				C274.779,266.678,282.205,249.054,296.574,245.357z"/>
			<path style="fill:#8B8B8B;" d="M242.496,254.556c-0.719-10.675,0.596-22.493,7.141-31.332c3.159-4.347,8.957-5.223,13.971-4.62
				c-5.597,1.108-10.805,2.984-13.244,8.574C246.068,235.713,244.634,245.261,242.496,254.556z"/>
			<path style="fill:#4E4E4E;" d="M266.794,182.835c5.49,3.65,0.089,13.93-6.2,11.752
				C251.795,191.538,260.173,178.433,266.794,182.835z"/>
			<path style="fill:#4E4E4E;" d="M325.932,283.039c-4.877,0.346-5.771-9.055-1.469-10.263
				C331.245,270.872,334.211,282.451,325.932,283.039z"/>
			<path style="fill:#4E4E4E;" d="M311.663,268.943c0,3.314,0.318,8.891-3.122,10.589c-2.943,1.452-11.149-2.011-12.831-4.519
				C288.444,264.174,311.663,256.131,311.663,268.943z"/>
			<path style="fill:#4E4E4E;" d="M274.878,243.558c0,9.185-12.573,13.339-13.383,2.276
				C260.681,234.728,274.878,234.447,274.878,243.558z"/>
			<path style="fill:#4E4E4E;" d="M274.208,218.724c-5.964,0.831-10.044-7.913-3.854-10.425
				C276.848,205.664,281.708,217.678,274.208,218.724z"/>
			<path style="fill:#4E4E4E;" d="M321.839,257.955c1.284,6.007-6.59,10.674-8.519,2.974
				C311.699,254.454,320.505,251.713,321.839,257.955z"/>
			<path style="fill:#BBBCB1;" d="M267.07,136.558l-35.315,18.628c0,0-0.267,10.575-0.999,21.839
				c2.259,1.574,12.077,7.413,22.395-1.66c5.445-4.788,11.43-11.823,16.289-18C268.046,146.076,267.07,136.558,267.07,136.558z"/>
			<g>
				<path style="fill:#4E4E4E;" d="M247.127,115.777c0,0-8.035-23.917-16.414-19.563c-11.982,6.226-20.777,4.541-23.195,13.29
					c-2.138,7.737-3.246,15.072,1.867,14.326c5.113-0.746,6.263-7.18,9.345-6.51c3.082,0.669,6.295,8.406,6.295,8.406
					L247.127,115.777z"/>
				<path style="fill:#E382B7;" d="M216.486,118.128c0,0,5.257-11.172,11.711-13.538c6.454-2.366,12.071,12.363,12.071,12.363
					l-13.842,8.142C226.426,125.095,226.503,111.445,216.486,118.128z"/>
				<path style="fill:#E2E4D1;" d="M270.482,140.385c1.574-21.383-22.541-31.313-40.246-21.841
					c-8.506,4.55-9.187,15.263-15.802,21.503c-7.208,6.8-24.089,2.064-20.551,17.348c1.458,6.297,9.358,9.795,13.187,9.712
					c0.801-0.015,0.806,2.007,0.865,2.49c0.167,1.358,0.447,2.178,1.245,3.343c1.356,1.982,3.208,3.559,5.675,3.789
					c5.043,0.47,10.209-3.528,14.407-5.775c9.188-4.919,18.694-3.922,27.751-7.692C266.141,159.461,269.801,149.632,270.482,140.385
					z"/>
				<path style="fill:#E382B7;" d="M215.182,168.481c-2.047,0-3.932-0.333-5.438-0.891c-4.316,3.429-5.691,19.651-1.024,23.364
					c2.084,1.839,5.979,1.824,8.382-0.033c3.651-2.82,2.362-9.792,3.224-13.625c0.2-0.887,2.033-10.695,2.945-10.81
					c-0.001,0-0.141-0.05-0.392-0.128C221.328,167.628,218.462,168.481,215.182,168.481z"/>
				<path style="fill:#4E4E4E;" d="M260.253,141.101c-5.444,20.457-37.105,8.602-33.565-8.17
					C231.099,112.033,264.274,125.991,260.253,141.101z"/>
				<path style="fill:#4E4E4E;" d="M253.938,117.588c-4.541-5.392,17.132-8.519,23.774-8.519c15.133,0,4.05,29.511-1.973,32.307
					C271.451,143.367,259.843,124.601,253.938,117.588z"/>
				<path style="fill:#FFFFFF;" d="M248.418,141.376c0,6.352-1.753,4.302-6.454,4.302c-4.701,0-9.847,2.497-9.847-3.855
					c0-6.352,3.342-10.91,8.042-10.91C244.86,130.914,248.418,135.024,248.418,141.376z"/>
				<path style="fill:#CA1969;" d="M211.339,172.585c-1.475,5.009-1.373,10.701,0.927,15.449
					c-0.456-6.833-0.057-13.489,1.302-20.199C212.603,169.291,211.827,170.896,211.339,172.585z"/>
				<path style="fill:#8B8B8B;" d="M239.229,153.872c-1.064-1.556-3.735-2.671-5.224-1.094c1.023,0.519,1.579,1.244,2.25,2.057
					c-10.044,11.672-26.668,16.608-38.299,4.214c8.653,16.472,31.557,11.215,38.399-4.087c1.047,1.32,1.836,2.693,2.597,4.269
					C240.513,157.898,240.393,155.432,239.229,153.872z"/>
				<path style="fill:#471713;" d="M205.957,150.345c0.992,4.478-1.834,8.912-6.312,9.904c-4.478,0.992-11.056-0.866-12.048-5.344
					c-0.992-4.478,0.715-8.401,5.193-9.393C197.267,144.52,204.965,145.867,205.957,150.345z"/>
				<path style="fill:#FFFFFF;" d="M189.695,151.057c0,0,5.956-2.437,9.889-1.712c3.933,0.725-0.676-3.052-5.788-2.952
					C188.684,146.493,189.695,151.057,189.695,151.057z"/>
				<path style="fill:#AC5013;" d="M245.056,132.376c-1.42-0.571-3.14,0.197-4.181,1.321c-1.681,1.815-2.326,4.426-2.326,6.843
					c0,2.988,0.999,4.489,2.479,5.183c0.385-0.027,0.77-0.067,1.151-0.043c3.442,0.215,6.669,2.05,6.669-4.302
					c0-2.076-0.374-4.19-1.29-6.066c-0.396-0.811-0.894-1.577-1.509-2.24C245.747,132.745,245.411,132.518,245.056,132.376z"/>
			</g>
			<path style="fill:#8B8B8B;" d="M238.335,125.295c7.03-4.44,14.431,4.134,13.956,10.918
				C248.567,130.692,246.017,126.065,238.335,125.295z"/>
		</g>
		
			<g id="XMLID_00000152266110201983659270000012220970972554424245_" style="clip-path:url(#SVGID_00000041292263898166795930000005862134106352026785_);">
			<g>
				
					<path id="XMLID_00000117660285845893718940000007837093292378526623_" style="opacity:0.61;fill:none;stroke:#BD7D24;stroke-width:0.627;stroke-linecap:round;stroke-miterlimit:10;" d="
					M360.895,314.373c24.803-2.758,30.811-12.661,28.033-17.295c-2.778-4.633-5.237-0.388-15.798,2.489
					c-10.56,2.877-18.928-5.678-18.928-5.678"/>
				<path id="XMLID_00000011731691345182114240000007502036534117051059_" style="fill:#E7B04B;" d="M385.818,305.962
					c-6.505,5.651-16.143,6.989-16.143,6.989c-0.865-0.342-1.573-0.749-2.151-1.207c-5.033-3.992,0.054-11.621,0.054-11.621
					c5.555-0.78,8.921-1.616,11.095-2.375c4.359-1.521,3.932-2.744,6.632-2.643C389.358,295.261,392.322,300.301,385.818,305.962z"
					/>
			</g>
			<path id="XMLID_00000060718330244103007890000007903909692803612569_" style="fill:#FFFFFF;" d="M408.99,326.451
				c-1.772,5.035-0.821,18.702-7.134,19.733c-6.304,1.03-7.212-3.143-7.212-3.143s-2.523,4.3-11.079,4.83
				c-1.279,0.081-2.433,0.447-3.482,1.033c-1.894,1.03-3.5,2.732-5.082,4.639c-3.456,4.146-6.816,9.302-12.79,10.782
				c-6.982,1.713-15.284,2.468-22.382-3.475c-1.874-1.568-3.668-3.613-5.33-6.232c-0.037-0.043-0.064-0.088-0.091-0.133
				c1.819,0.265,3.305,0.062,4.466-0.444c2.446-1.031,3.491-3.333,3.203-5.21c-0.013-0.077-0.024-0.144-0.046-0.219
				c-0.3-1.47-1.444-2.615-3.365-2.597c-1.548,0.006-2.929-0.113-4.103-0.296c-3.088-0.482-4.825-1.392-4.825-1.392
				c-0.923-2.809-1.607-5.608-2.075-8.353l-0.019-0.115c0,0,0.896,0.653,4.664,1.132c0.776,0.1,1.667,0.181,2.706,0.258
				c3.606,0.269,5.88-2.293,5.554-4.529c-0.011-0.067-0.023-0.144-0.044-0.21c-0.314-1.438-1.762-2.691-4.684-2.885
				c-1.874-0.118-3.383-0.296-4.57-0.496c-3.629-0.591-4.457-1.373-4.457-1.373c-0.112-2.379-0.083-4.673,0.028-6.832
				c0.011,0.008,0.011,0.008,0.022,0.016c1.346,1.171,2.665,1.942,4.054,2.347c1.107,0.312,2.254,0.391,3.503,0.246
				c1.792-0.204,3.535-1.732,3.31-3.353c-0.122-0.927-0.91-1.884-2.71-2.635c-1.651-0.687-3.022-1.469-4.108-2.2
				c-2.161-1.452-3.207-2.722-3.207-2.722c0.103-0.638,0.226-1.255,0.31-1.846c0.999-7-7.964-9.908-9.402-17.132
				c-0.899-4.516-1.129-9.268-1.129-9.268c1.561,0.86,6.513,1.455,8.491,1.842c6.89,1.35,15.657-0.062,21.751-3.821
				c3.655-2.265,6.019-4.585,7.079-7.214l0.061,0.01l1.834,0.292c-0.02,0.122,0.025,0.213,0.025,0.213
				c-0.023,1.188,2.551,1.783,3.304,2.104c0.181,0.079,0.368,0.078,0.517,0.024l0.002,0.01c0,0,4.545,5.979,5.008,7.058
				c0,0,0.856,3.043-3.997,1.903c0,0-11.337,2.711-6.119,10.432c3.561,5.249,8.818,5.297,12.579,4.347l0.02,0.066l3.554,6.414
				c0.498,0.333,0.95,0.861,1.423,1.642c0.353,0.593,0.561,1.26,0.605,2.013c0,0,15.882,18.162,19.98,19.633
				c4.139,1.484,1.951,2.7,4.891,2.22c2.95-0.482,2.372-14.644,7.699-15.07c0.887-0.066,1.601,0.015,2.159,0.229l0.009-0.001
				C410.529,319.569,410.399,322.452,408.99,326.451z"/>
			<path id="XMLID_00000177473642623967118700000007723294219416567187_" style="fill:#E7B04B;" d="M382.127,308.388
				c-1.083,1.647-2.112,2.289-2.977,2.43c-1.316,0.215-2.239-0.719-2.337-0.841c-0.021-0.006-0.021-0.006-0.021-0.006l-1.544-2.747
				c0,0,0,0-0.002-0.009l-3.281-5.827l-0.331-0.577c0.218-0.115,0.409-0.215,0.58-0.312c1.18-0.686,3.468-2.925,4.752-5.877
				C376.966,294.621,385.349,303.472,382.127,308.388z"/>
			<path id="XMLID_00000047772002018894676720000003030463868041161112_" style="opacity:0.21;fill:#222221;" d="M382.127,308.388
				c-1.083,1.647-2.112,2.289-2.977,2.43c-1.316,0.215-2.239-0.719-2.337-0.841c-0.021-0.006-0.021-0.006-0.021-0.006l-1.544-2.747
				c0,0,0,0-0.002-0.009l-3.281-5.827l-0.331-0.577c0.218-0.115,0.409-0.215,0.58-0.312c1.18-0.686,3.468-2.925,4.752-5.877
				C376.966,294.621,385.349,303.472,382.127,308.388z"/>
			<g id="XMLID_00000101065812343857664740000016775410679832072086_">
				<path id="XMLID_00000103238298412693237710000000435574000234218163_" style="opacity:0.21;fill:#222221;" d="M358.06,301.077
					c0.119-0.188,0.249-0.37,0.386-0.549c-0.359-0.304-0.558-0.502-0.558-0.502L358.06,301.077z"/>
				<path id="XMLID_00000127738331394509351800000011825600428996088464_" style="opacity:0.21;fill:#222221;" d="M378.443,296.354
					l-2.313-2.784c0,0-13.235,1.141-17.685,6.958c1.796,1.522,7.717,5.756,14.112,1.91l2.689,4.776
					c0.002,0.009,0.002,0.009,0.002,0.009l1.544,2.747c0,0,0,0,0.021,0.006c0.099,0.122,1.021,1.056,2.337,0.841l-5.38-9.194
					l-0.002-0.005C375.33,300.43,376.905,298.731,378.443,296.354z"/>
			</g>
			<g id="XMLID_00000129898746879272309470000013466201274452946563_">
				<path id="XMLID_00000117644255552026191600000004445105455956449722_" style="fill:#E7B04B;" d="M342.26,348.782
					c0.348,1.887-0.667,4.253-3.127,5.316c-1.159,0.515-2.634,0.726-4.452,0.471c-0.021-0.006-0.049-0.002-0.07-0.008
					c-1.266-2.013-2.445-4.336-3.541-7.058c-0.416-1.037-0.794-2.08-1.13-3.111c0,0,1.748,0.918,4.844,1.389
					c1.176,0.193,2.538,0.315,4.084,0.299c1.871-0.02,3.006,1.068,3.346,2.482C342.236,348.637,342.247,348.705,342.26,348.782z"/>
				<path id="XMLID_00000075863688121110393890000011591674269954905013_" style="fill:#E7B04B;" d="M340.721,332.483
					c0.428,2.258-1.871,4.913-5.536,4.644c-1.039-0.077-1.93-0.158-2.706-0.258c-3.768-0.479-4.664-1.132-4.664-1.132l-0.019-0.115
					c-0.457-2.737-0.718-5.418-0.812-7.987c0,0,0.828,0.782,4.447,1.374c1.197,0.199,2.696,0.378,4.58,0.495
					c2.844,0.196,4.29,1.38,4.665,2.77C340.698,332.339,340.71,332.415,340.721,332.483z"/>
				<path id="XMLID_00000123421931910798666650000012397932981117057155_" style="fill:#E7B04B;" d="M337.695,319.974
					c0.331,1.663-1.459,3.267-3.291,3.468c-1.259,0.146-2.406,0.068-3.514-0.254c-1.398-0.403-2.719-1.184-4.065-2.355
					c0.005-0.03-0.001-0.069,0.003-0.099c0.168-3.017,0.494-5.793,0.86-8.201c0,0,1.044,1.26,3.185,2.706
					c1.088,0.74,2.468,1.52,4.131,2.216C336.729,318.169,337.52,319.085,337.695,319.974z"/>
			</g>
			<path id="XMLID_00000140718952769571979970000013567404187777002382_" style="fill:#FFFFFF;" d="M451.321,337.241
				c-0.021,1.868-1.557,3.392-3.435,3.373c-0.888-0.003-1.721,0.035-2.478,0.109c-0.427,0.04-0.833,0.097-1.217,0.159
				c-2.638,0.461-4.456,1.468-5.865,2.991c-1.924,2.051-3.088,5.013-4.527,8.702c-0.042,0.105-0.084,0.211-0.116,0.315
				c-1.299,3.34-2.829,7.141-5.336,10.758c-1.616,2.306-3.63,4.53-6.246,6.516c-1.406,1.058-2.788,1.955-4.155,2.711
				c-3.539,2.009-6.915,3.083-9.961,3.581c-1.297,0.212-2.533,0.315-3.692,0.347c-1.758,0.05-3.358-0.083-4.753-0.289
				c-2.186-0.333-4.183-0.905-5.969-1.629c-4.385-1.779-7.539-4.48-9.251-6.864c-0.116-0.168-0.242-0.335-0.359-0.504
				c-1.737-2.419-3.53-4.938-5.163-7.266c-2.194-3.104-4.114-5.859-5.284-7.523c0.906-1.095,1.825-2.114,2.798-2.983
				c0.723-0.651,1.48-1.209,2.286-1.646c0.993,1.426,3.013,4.312,5.404,7.71c1.833,2.581,3.871,5.455,5.838,8.192
				c0.003,0.019,0.014,0.027,0.027,0.045c1.24,1.731,3.797,3.671,7.177,4.855c1.089,0.384,2.272,0.684,3.517,0.875
				c1.437,0.219,3.149,0.314,5.069,0.109c2.658-0.276,5.71-1.101,8.98-2.947c1.103-0.614,2.236-1.352,3.386-2.221
				c1.924-1.449,3.424-3.075,4.649-4.815c2.047-2.87,3.334-6.04,4.57-9.162c0.084-0.211,0.166-0.432,0.25-0.643
				c1.104-2.844,2.264-5.826,4.004-8.458c1.994-3.009,4.738-5.539,9.011-6.859c2.085-0.647,4.541-1.009,7.456-0.982
				C449.823,333.815,451.338,335.353,451.321,337.241z"/>
			<path id="XMLID_00000158019628670163482260000003040603384441103004_" style="fill:#FFFFFF;" d="M360.242,240.949
				c0.274-3.642,7.978,10.932,7.978,10.932c-2.1-0.795-5.517,0.608-7.242-1.41C359.265,248.45,360.242,240.949,360.242,240.949z"/>
			<path id="XMLID_00000095301331040304048710000000587987937624359312_" style="fill:#FFFFFF;" d="M322.822,254.112
				c2.127-1.51,10.697,4.737,10.965,7.275c0.282,2.548-8.4,8.421-9.252,5.831C323.682,264.617,322.822,254.112,322.822,254.112z"/>
			<path id="XMLID_00000164494141846852478970000012466206010749677714_" style="fill:#E7B04B;" d="M395.4,331.309
				c0,0-1.718,7.321-0.509,12.058c1.209,4.737,9.908,4.208,11.21,0.869s1.628-8.228,1.964-10.823
				c0.336-2.595,1.737-7.68,1.967-9.388c0.23-1.707,1.599-5.401-2.988-5.547c-4.587-0.147-6.455,7.926-6.93,9.836
				C399.639,330.224,398.192,332.254,395.4,331.309z"/>
			<path id="XMLID_00000139290144306247208100000003018670911256250802_" style="opacity:0.19;fill:#090909;" d="M375.227,319.313
				c0,0,0.008,0.042,0.024,0.113c-0.049,0.022-0.099,0.043-0.149,0.066C375.141,319.43,375.188,319.374,375.227,319.313z"/>
			<path id="XMLID_00000116203412774952977500000009334723499931138986_" style="fill:#FFFFFF;" d="M327.949,312.95
				c0.103-0.638,0.209-1.258,0.31-1.846l3.199-0.769c0,0-0.197,2.055-0.302,5.337C328.995,314.22,327.949,312.95,327.949,312.95z"/>
			<path style="fill:#FFFFFF;" d="M377.942,269.984c-2.134,2.036-4.74,3.054-7.918,2.803c-1.64-0.136-3.444-0.611-5.4-1.466
				c-5.727-2.507-11.818-17.682-11.818-17.682c-0.008,0.001-0.015,0.003-0.023,0.004c-0.314-0.674-0.622-1.238-0.788-1.529
				c-0.04,0.034-0.077,0.072-0.134,0.087c-0.126,0.032-0.259-0.004-0.383-0.044c-1.565-0.514-2.755-1.776-4.175-2.611
				c-0.485-0.285-1.02-0.526-1.583-0.524c-0.563,0.002-1.155,0.301-1.356,0.827c-0.109,0.285-0.095,0.599-0.08,0.904
				c0.045,0.893,0.089,1.787,0.134,2.68c0.02,0.409-0.006,0.906-0.367,1.1c-0.101,0.054-0.206,0.074-0.313,0.071
				c0.067,0.203,0.29,0.648,0.99,1.115c-0.017,0.007-0.038,0.014-0.055,0.021c0.277,0.063,4.806,1.336,8.884,9.144
				c2.226,4.263,2.729,7.703,1.509,10.744l1.894,0.302c0.041-0.233,0.292-0.63,1.411-0.901c1.708-0.417,2.925-0.698,4.019-0.285
				c1.095,0.423,0.212,1.122-0.739,2.906c0,0-0.35,0.511-0.845,0.621l0.003,0.019c0,0,1.932,5.921,2.392,6.99
				c0,0,4.323,2.915,5.236-0.371c1.874,0.236,2.966-4.029,4.216-3.207c1.746,1.145,2.776,2.378,2.776,2.378
				c2.234,2.624,2.727,5.336,2.348,7.785C383.906,280.017,381.228,275.438,377.942,269.984z"/>
			<path id="XMLID_00000148633432010583365400000007539032560427557777_" style="fill:#E7B04B;" d="M384.002,355.809
				c-1.504,0.936-4.155,3.432-5.204,4.442c1.633,2.328,3.426,4.847,5.163,7.266c2.055-0.888,4.297-2.379,5.878-3.516
				L384.002,355.809z"/>
			<path id="XMLID_00000029005644330086143880000004039320263088286887_" style="fill:#E7B04B;" d="M405.629,369.885l-1.336,6.917
				c-1.758,0.05-3.358-0.083-4.753-0.289c-2.186-0.333-4.183-0.905-5.969-1.629l3.472-5.984c1.089,0.384,2.272,0.684,3.517,0.875
				C401.997,369.995,403.709,370.09,405.629,369.885z"/>
			<path id="XMLID_00000054979883047177266500000017875639354022513325_" style="fill:#E7B04B;" d="M428.347,363.647
				c-1.616,2.306-3.63,4.53-6.246,6.516c-1.406,1.058-2.788,1.955-4.155,2.711l-3.338-5.936c1.103-0.614,2.236-1.352,3.386-2.221
				c1.924-1.449,3.424-3.075,4.649-4.815L428.347,363.647z"/>
			<path id="XMLID_00000140705464353940444030000008967795483174509449_" style="fill:#E7B04B;" d="M438.326,343.873
				c-1.924,2.051-3.088,5.013-4.527,8.702c-0.042,0.105-0.084,0.211-0.116,0.315l-6.468-2.149c0.084-0.211,0.166-0.432,0.25-0.643
				c1.104-2.844,2.264-5.826,4.004-8.458L438.326,343.873z"/>
			<path id="XMLID_00000145773921104076195790000004933505043223060105_" style="fill:#E7B04B;" d="M451.321,337.241
				c-0.021,1.868-1.557,3.392-3.435,3.373c-1.393-0.009-2.62,0.083-3.695,0.268c-0.99-1.713-2.496-4.288-3.71-6.102
				c2.085-0.647,4.541-1.009,7.456-0.982C449.823,333.815,451.338,335.353,451.321,337.241z"/>
			<path id="XMLID_00000024715004400469948880000004038897280312604350_" style="fill:#917946;" d="M348.405,348.064
				c1.382-1.671,3.815-2.829,5.999-2.007c1.39,0.497,2.476,1.516,3.844,1.905c1.17,0.357,0.862-0.569,0.72-1.427
				c-0.753-3.954-1.574-14.702,3.579-15.816c1.844-0.296,3.784,0.135,4.453,2.153c0.796,2.702,0.501,6.17,0.651,8.893
				c0.023,2.898,0.242,5.704,0.762,8.536c0.301,2.134,1.175,4.478,0.437,6.684c-0.271,0.755-0.722,1.435-1.267,1.961
				c-2.071,2.165-4.957,3.498-7.969,3.114c2.941,0.023,5.576-1.393,7.387-3.641c2.108-2.246,0.679-5.223,0.186-7.874
				c-0.68-2.845-0.943-5.839-1.053-8.734c-0.153-2.336,0.018-6.259-0.642-8.401c-0.388-1.3-1.554-1.257-2.698-1.148
				c-0.995,0.099-1.721,1.295-2.146,2.548c-1.26,3.995-0.959,8.537-0.502,12.716c-0.044,1.331-1.121,1.712-2.173,1.309
				c-1.438-0.482-2.501-1.616-3.784-2.216C352.201,345.703,349.953,346.636,348.405,348.064L348.405,348.064z"/>
			<path id="XMLID_00000075164934732712429200000005916168129025203902_" style="fill:#E7B04B;" d="M368.264,352.031
				c1.432,3.752-0.165,6.233-1.973,7.732c-1.579,1.324-3.313,1.883-3.313,1.883c-3.325-3.018-3.717-13.264-3.717-13.264
				c0.166-1.941-0.027-3.547-0.027-3.547c-0.291-3.169-0.371-6.796,0.294-9.49c0.681-2.716,2.119-4.48,4.893-3.868
				C369.765,332.656,365.999,346.077,368.264,352.031z"/>
			<path id="XMLID_00000094612207365475353950000002966331895199979711_" style="opacity:0.14;fill:#222221;" d="M361.941,285.612
				c0,0-5.914,4.049-1.309,9.587c4.605,5.537,9.505,0.605,9.801-0.122c0,0-5.611,3.713-8.812-1.077
				C358.42,289.209,361.941,285.612,361.941,285.612z"/>
			<path id="XMLID_00000137116159413350260690000018008997768870190725_" style="opacity:0.63;fill:#FFFFFF;" d="M362.294,287.77
				c0,0-1.368,3.364,0.478,5.831c1.846,2.467,3.189,1.631,2.883,1.27c-0.306-0.361-3.349-1.628-3.092-3.83
				C362.82,288.839,363.342,286.773,362.294,287.77z"/>
			<path id="XMLID_00000162310024955011525810000011673286010101340603_" style="opacity:0.63;fill:#FFFFFF;" d="M356.076,286.028
				c0,0-3.049,2.726-1.48,7.324c1.438,4.216,4.316,7.041,5.443,7.401c1.128,0.359,1.636,0.893,2.319,0.576
				c0.683-0.317,0.078-1.285-1.667-1.761c-1.745-0.476-4.168-4.231-4.863-6.47c-0.586-1.887-0.806-3.93,0.484-5.621
				C357.33,286.144,356.726,285.65,356.076,286.028z"/>
			<path id="XMLID_00000013914368375076668840000002153600491101587596_" style="fill:#917946;" d="M345.45,327.827
				c8.821-1.669,18.79-3.475,25.417-9.942c1.737-1.862,3.252-4.559,1.913-6.969c-0.412-0.619-1.006-1.455-1.639-1.581
				c-0.499-0.147-1.171-0.018-1.855,0.189c-2.836,1.014-5.767,2.486-8.724,3.353c-7.705,3.007-16.286,0.373-21.806-5.535
				c5.929,5.106,13.999,7.356,21.365,4.202c3.024-0.98,5.657-2.425,8.699-3.514c1.909-0.725,3.845-0.27,4.965,1.522
				c2.297,2.975,0.547,7.081-1.825,9.378C364.94,325.504,354.679,327.056,345.45,327.827L345.45,327.827z"/>
			<path style="fill:#E7B04B;" d="M353.559,264.882c-4.041-7.737-8.519-9.055-8.869-9.14c0.015-0.007,0.03-0.014,0.045-0.021
				c-0.704-0.468-0.928-0.914-0.995-1.118c-0.324-0.007-0.673-0.208-1.014-0.249c-0.611-0.073-1.178,0.41-1.409,0.98
				c-0.227,0.558-0.135,1.548-0.103,2.166c-1.974,1.209-2.943,2.216-2.943,2.216s-0.494,1.018-1.631-0.02
				c-1.101-1.004-10.271-8.937-15.698-7.133c-0.199,0.052-0.383,0.132-0.566,0.221c-3.784,1.842-5.134,19.805-2.892,31.593
				c0,0,4.595,1.853,8.701,2.484c7.064,1.086,15.701-0.251,21.804-4.02c3.655-2.265,6.019-4.585,7.079-7.214
				c0.014-0.032,0.027-0.074,0.042-0.105C356.275,272.509,355.758,269.1,353.559,264.882z M324.531,267.219
				c-0.85-2.604-1.708-13.109-1.708-13.109c2.13-1.512,10.7,4.743,10.966,7.275C334.067,263.934,325.389,269.811,324.531,267.219z"
				/>
			<path style="fill:#E7B04B;" d="M360.349,239.601c-3.473,1.209-2.628,10.483-3.632,12.788c-0.129,0.297-0.419,0.512-0.777,0.679
				c-0.208,0.097-0.44,0.172-0.674,0.234c-0.805-1.821-0.608-1.75-1.359-2.562c-0.28-0.302-0.555-0.635-0.937-0.787
				c-0.383-0.152-0.91-0.036-1.048,0.351c-0.117,0.329,0.083,0.675,0.201,1.004c0.098,0.274,0.076,0.637-0.126,0.805
				c0.172,0.301,0.495,0.892,0.821,1.599c0.007-0.001,0.012-0.002,0.019-0.003c0.434,1.065,6.279,15.199,11.789,17.612
				c1.955,0.855,3.759,1.329,5.4,1.466c3.178,0.25,5.784-0.767,7.918-2.803C373.039,254.951,362.524,238.841,360.349,239.601z
				 M360.981,250.469c-1.711-2.019-0.737-9.518-0.737-9.518c0.272-3.646,7.972,10.931,7.972,10.931
				C366.123,251.089,362.701,252.486,360.981,250.469z"/>
			<g>
				<g>
					<path style="fill:#B5CE78;" d="M381.529,286.502c4.91,5.263,5.992,13.73,2.563,20.058c-3.43,6.328-11.113,10.045-18.203,8.805
						c-7.09-1.24-13.056-7.344-14.134-14.461C349.266,284.483,370.198,274.358,381.529,286.502z"/>
				</g>
				<g>
					<path style="fill:#FFFFFF;" d="M368.124,294.23c-1.713,0.517-3.185,1.529-4.608,2.506c-1.083,0.745-2.202,1.515-3.394,2.032
						c-2.696,1.17-5.955,1.033-8.557-0.337c0.004,0.405,0.018,0.812,0.052,1.226c2.787,1.261,6.135,1.328,8.938,0.107
						c1.288-0.559,2.452-1.358,3.577-2.132c1.417-0.974,2.755-1.894,4.306-2.361c3.148-0.955,6.88,0.411,8.678,3.168
						c1.798,2.756,1.54,6.719-0.599,9.22c-1.244,1.453-3.018,2.423-4.733,3.361l-0.661,0.363c-1.873,1.037-3.739,2.247-4.913,4.024
						c0.412,0.063,0.825,0.113,1.24,0.143c1.063-1.347,2.625-2.343,4.2-3.216l0.656-0.36c1.801-0.985,3.663-2.003,5.037-3.608
						c2.441-2.853,2.735-7.375,0.684-10.521C375.976,294.702,371.724,293.156,368.124,294.23z"/>
				</g>
			</g>
			<path id="XMLID_00000137851812547733089890000010719826935657154720_" style="fill:#E7B04B;" d="M370.373,319.415
				c-6.505,5.651-16.143,6.989-16.143,6.989c-0.865-0.342-1.573-0.749-2.151-1.207c-5.033-3.992,0.054-11.621,0.054-11.621
				c5.555-0.78,8.921-1.616,11.096-2.376c4.359-1.521,3.932-2.744,6.632-2.643C373.913,308.715,376.877,313.755,370.373,319.415z"/>
			<g>
				<path style="fill:none;stroke:#791F27;stroke-width:0.5177;stroke-linecap:round;stroke-miterlimit:10;" d="M355.661,279.655
					c0,0,1.109,2.583,3.167,1.93c2.057-0.653,2.293-1.851,2.073-3.574"/>
				<path style="fill:none;stroke:#791F27;stroke-width:0.5177;stroke-linecap:round;stroke-miterlimit:10;" d="M360.9,278.011
					c0,0,1.109,2.583,3.167,1.93c2.058-0.653,2.294-1.851,2.073-3.574"/>
				<path style="fill:#974747;" d="M356.491,276.581l4.759,1.729l2.665-3.803c0.513-0.542-0.036-1.411-0.746-1.18l-6.724,2.185
					C355.908,275.685,355.941,276.454,356.491,276.581z"/>
				<path style="fill:none;stroke:#791F27;stroke-width:1.0354;stroke-linecap:round;stroke-miterlimit:10;" d="M347.82,278.863
					c0,0,1.31-1.92,3.551-1.323"/>
				<path style="fill:none;stroke:#791F27;stroke-width:1.0354;stroke-linecap:round;stroke-miterlimit:10;" d="M368.556,272.428
					c0,0,1.31-1.92,3.551-1.323"/>
			</g>
		</g>
		<g style="clip-path:url(#SVGID_00000041292263898166795930000005862134106352026785_);">
			<g style="opacity:0.2;">
				<path style="fill:#B79BFA;" d="M141.298,343.559c-4.079,3.066-7.382,11.722-2.94,14.416
					c16.554,10.039,39.812,16.039,49.493,17.899c9.681,1.86,19.678,2.196,29.607,2.524c4.121,0.136,9.105-0.107,11.1-3.11
					c1.358-2.044,0.654-4.698-1.012-6.578c-1.666-1.88-4.128-3.144-6.559-4.314C196.649,352.682,169.363,345.007,141.298,343.559z"
					/>
			</g>
			<g>
				<path style="fill:#FFFFFF;" d="M149.124,338.138c0.055-9.117-0.179-17.883,2.632-26.556c2.811-8.673,7.849-16.829,15.249-22.154
					c7.4-5.326,17.319-7.496,25.927-4.489c13.118-3.702,28.529-1.401,40.193,5.65c6.857,11.709,4.803,41.316-1.296,61.565
					c-3.202,10.63-0.694,18.258-5.421,19.787c-3.393,1.097-14.16,2.353-16.477-4.212c-2.174,2.016-1.931,7.723-10.619,6.178
					c-2.919-0.519-6.601-2.928-7.509-5.751c-2.56,2.999-7.043,4.453-10.903,3.645c-3.859-0.808-7.285-2.952-10.619-5.058
					C165.076,363.455,135.02,338.382,149.124,338.138z"/>
			</g>
			<path style="fill:#98A9AE;" d="M196.03,309.422c-4.974,16.544-7.146,34.142-5.235,51.348c0.174,2.444,0.713,4.953,1.008,7.386
				C186.288,348.959,188.232,327.721,196.03,309.422L196.03,309.422z"/>
			<path style="fill:#98A9AE;" d="M205.683,321.778c-0.191,7.13-0.574,17.06-0.544,24.075c-0.003,4,0.097,7.999,0.45,11.965
				c0.529,3.798,0.602,8.269,3.569,11.069c-0.892-0.494-1.566-1.312-2.111-2.18C201.493,355.816,203.716,333.831,205.683,321.778
				L205.683,321.778z"/>
			<path style="fill:#98A9AE;" d="M221.515,324.867c0.201,10.32-1.434,39.351-10.425,45.178c3.02-2.587,3.865-6.698,4.927-10.353
				c0.954-3.776,1.668-7.624,2.285-11.488C219.417,341.472,220.598,331.727,221.515,324.867L221.515,324.867z"/>
			<path style="fill:#98A9AE;" d="M236.574,315.214c0.628,14.085-1.195,28.316-5.193,41.837c-1.031,3.723-0.729,7.564-1.832,11.338
				c-0.394,1.246-1.105,2.5-2.251,3.22c-1.135,0.737-2.492,0.869-3.758,0.809c1.27-0.079,2.563-0.365,3.546-1.112
				c0.99-0.744,1.532-1.906,1.811-3.104c0.801-3.679,0.402-7.685,1.238-11.448C233.647,343.169,235.545,329.196,236.574,315.214
				L236.574,315.214z"/>
			<g>
				<path style="fill:#FFFFFF;" d="M213.611,373.766c-9.659,1.292-16.303-1.495-24.904,3.084
					c-7.405,3.942-11.094,10.376-21.871,12.221c-8.301,1.421-19.011-2.73-25.222-8.418c-6.211-5.688-7.877-12.001-8.496-20.401
					c-0.721-9.789,4.739-24.05,16.799-24.873c0,0,4.138,1.597,2.34,4.267c-2.385,3.541-10.775,9.232-9.704,18.156
					c1.878,15.652,19.095,19.095,26.473,17.601c13.938-2.823,19.23-20.105,41.456-15.096
					C220.673,362.603,221.769,372.675,213.611,373.766z"/>
				<path style="fill:#8C9AB8;" d="M210.481,360.619c-10.744-2.421-17.527,0.37-23.247,4.215c-0.402,3.41-0.45,8.393,1.781,12.18
					c8.451-4.349,15.054-1.658,24.596-2.934C221.769,372.988,220.673,362.915,210.481,360.619z"/>
			</g>
			<g>
				<path style="fill:#3D63A0;" d="M196.546,299.794c3.346,3.503,8.056,5.439,12.815,6.339c4.292,0.811,8.776,0.846,12.988-0.313
					c4.212-1.159,8.138-3.561,10.771-7.047c1.795-2.376,2.912-5.827,1.181-8.249c-0.96-1.343-2.572-2.036-4.125-2.594
					c-7.019-2.523-14.563-3.547-22.003-3.067c-3.659,0.236-7.214,0.915-10.777,1.75c-2.05,0.481-4.452,0.826-4.914,3.239
					C191.833,293.243,194.32,297.463,196.546,299.794z"/>
			</g>
			<g>
				<g>
					<path style="fill:#8C9AB8;" d="M159.941,322.701c2.416-2.463-0.083-14.177-2.466-23.152c-2.442,3.712-4.35,7.808-5.719,12.033
						c-0.3,0.927-0.559,1.855-0.794,2.784C153.823,319.532,157.645,325.041,159.941,322.701z"/>
				</g>
				<g>
					<path style="fill:#8C9AB8;" d="M159.709,296.445c5.272,7.294,11.46,14.404,13.847,14.764c5.167,0.78,2.297-13.182-0.834-25.039
						c-2.015,0.887-3.94,1.978-5.717,3.257C164.247,291.413,161.818,293.793,159.709,296.445z"/>
				</g>
			</g>
			<g>
				<path style="fill:#F4D532;" d="M217.956,314.837c2.364,0.161,4.729-1.328,5.685-3.497c1.975-4.478-3.1-9.226-7.503-7.199
					C211.181,306.423,212.37,314.456,217.956,314.837z"/>
			</g>
			<g>
				<path style="fill:#E59969;" d="M184.606,278.655c-0.926,1.966-0.374,4.326,1.315,5.636c5.773,4.475,19.41,14.035,30.724,14.173
					c12.014,0.147,25.55-13.685,30.195-18.867c1.005-1.121,1.125-2.808,0.287-4.068c-4.27-6.419-17.714-25.105-29.931-25.778
					C200.35,248.823,188.586,270.199,184.606,278.655z"/>
				<g>
					<path style="fill:#8C9AB8;" d="M247.273,277.303c-4.645,5.181-18.181,19.013-30.195,18.867
						c-11.314-0.138-24.95-9.697-30.723-14.173c-1.056-0.819-1.667-2.048-1.751-3.335c-0.921,1.965-0.369,4.32,1.318,5.628
						c5.773,4.475,19.41,14.035,30.724,14.173c12.014,0.147,25.55-13.685,30.195-18.867c0.687-0.766,0.949-1.795,0.786-2.773
						C247.523,276.992,247.407,277.153,247.273,277.303z"/>
					<path style="fill:#FFFFFF;" d="M186.354,281.997c5.773,4.475,19.41,14.035,30.723,14.173
						c12.014,0.146,25.55-13.686,30.195-18.867c0.134-0.15,0.25-0.311,0.353-0.479c0.664-1.087,0.66-2.497-0.066-3.589
						c-1.836-2.761-5.372-7.789-9.774-12.679l0.071-0.129c2.889-5.233,3.729-11.419,2.348-17.277
						c-3.898-1.99-8.612-0.649-10.99,3.125l-2.724,4.324l0.131,0.122c-0.392-0.245-0.784-0.479-1.178-0.701
						c0.25-0.631,0.453-1.277,0.517-1.954c0.111-1.17-0.254-2.462-1.19-3.125c-0.249-0.176-0.565-0.305-0.848-0.199
						c-0.276,0.103-0.437,0.393-0.576,0.662c-0.283,0.55-0.567,1.1-0.85,1.65c-0.2-1.55-0.954-3.016-2.084-4.05
						c-0.415-0.38-1.013-0.714-1.496-0.433c-0.288,0.167-0.437,0.507-0.548,0.83c-0.299,0.876-0.453,1.805-0.454,2.735
						c-0.969-0.784-1.937-1.568-2.906-2.352c-0.675-0.546-1.402-1.115-2.254-1.196c-1.424-0.136-2.683,1.242-2.871,2.715
						c-0.136,1.068,0.169,2.13,0.676,3.085c-0.81,0.257-1.604,0.562-2.383,0.91l-1.14-2.048c-2.433-4.369-7.62-6.169-12.094-4.196
						c-1.606,5.481-1.43,11.326,0.442,16.658c-4.952,5.982-8.492,12.715-10.345,16.65c-0.347,0.737-0.486,1.53-0.436,2.301
						C184.687,279.95,185.298,281.179,186.354,281.997z"/>
				</g>
				<path style="fill:#98A9AE;" d="M235.795,258.273c-0.067,0.007-0.136-0.007-0.198-0.044c-0.159-0.095-5.83-5.436-5.984-5.54
					c-0.154-0.104-0.197-0.318-0.097-0.478l1.464-2.323c1.368-2.17,4.088-2.943,6.329-1.799l0.139,0.071l0.037,0.157
					c0.766,3.247,0.306,6.633-1.296,9.534l-0.139,0.251C235.996,258.202,235.898,258.263,235.795,258.273z"/>
				<path style="fill:#98A9AE;" d="M198.249,258.302c-0.133,0.013-0.266-0.057-0.329-0.189l-0.134-0.277
					c-1.551-3.207-1.851-6.863-0.845-10.296l0.045-0.154l0.143-0.063c2.458-1.083,5.323-0.092,6.66,2.311l1.438,2.583
					c0.092,0.165,0.038,0.376-0.121,0.472C204.947,252.783,198.289,258.298,198.249,258.302z"/>
				<g>
					<path style="fill:none;stroke:#791F27;stroke-width:0.5064;stroke-linecap:round;stroke-miterlimit:10;" d="M209.615,276.272
						c0,0,0.351,3.46,3.021,3.452c2.67-0.007,3.393-1.333,3.772-3.449"/>
					<path style="fill:none;stroke:#791F27;stroke-width:0.5064;stroke-linecap:round;stroke-miterlimit:10;" d="M216.408,276.275
						c0,0,0.351,3.46,3.021,3.452c2.67-0.007,3.393-1.333,3.772-3.449"/>
					<path style="fill:#974747;" d="M213.47,274.565l3.203,2.451l2.933-2.254c0.519-0.29,0.309-1.081-0.285-1.075l-5.632,0.054
						C213.241,273.745,213.083,274.338,213.47,274.565z"/>
					<path style="fill:none;stroke:#791F27;stroke-width:1.0127;stroke-linecap:round;stroke-miterlimit:10;" d="M200.151,269.895
						c0,0,2.258-1.78,4.681-0.244"/>
					<path style="fill:none;stroke:#791F27;stroke-width:1.0127;stroke-linecap:round;stroke-miterlimit:10;" d="M227.009,269.991
						c0,0,2.258-1.78,4.682-0.244"/>
				</g>
			</g>
			<path style="fill:#595F78;" d="M178.268,371.01c9.195-8.875,23.675-16.451,36.169-9.909c1.609,1.018,3.135,2.446,3.603,4.31
				c-0.8-1.721-2.323-2.883-3.962-3.643C201.508,356.642,188.524,363.942,178.268,371.01L178.268,371.01z"/>
			<path style="fill:#8C9AB8;" d="M146.541,367.606c-4.362,0.537-8.861-0.151-12.829-2.036c0.838,5.113,2.507,9.421,6.08,13.369
				c4.86-0.626,9.522-2.84,13.059-6.228C150.493,371.457,148.303,369.78,146.541,367.606z"/>
			<path style="fill:#8C9AB8;" d="M142.566,358.015c-0.004-0.029-0.01-0.056-0.013-0.085c-0.376-3.13,0.424-5.855,1.709-8.236
				c-2.164-2.908-3.474-6.439-3.691-10.058c-2.96,2.757-5.029,6.592-6.237,10.597c0.777,1.469,1.702,2.85,2.832,4.072
				C138.658,355.918,140.527,357.217,142.566,358.015z"/>
			<path style="fill:#8C9AB8;" d="M171.957,374.683c-0.939,0.348-1.91,0.64-2.932,0.847c-1.627,0.329-3.734,0.418-6.048,0.189
				c-0.824,2.508-2.124,4.853-3.902,6.804c-1.9,2.086-4.337,3.673-6.991,4.622c4.879,1.923,10.179,2.837,14.751,2.055
				c0.857-0.147,1.655-0.332,2.428-0.533c0.98-2.069,1.649-4.303,2.055-6.56C171.759,379.658,171.907,377.174,171.957,374.683z"/>
		</g>
		<g style="clip-path:url(#SVGID_00000041292263898166795930000005862134106352026785_);">
			<g>
				<path style="fill:#C3DBF0;" d="M392.034,61.206c-0.211,2.164-1.212,3.922-3.508,4.646c-3.627,1.144-7.037-2.612-10.298-3.522
					c-3.138-0.875-5.958,0.882-8.55-1.291c-3.504-2.937,1.177-10.21,3.453-12.373C383.451,39.634,393.218,48.28,392.034,61.206z"/>
				<path style="fill:#C3DBF0;" d="M401.925,50.132c-1.01,4.448-6.573,7.21-8.511,1.73
					C391.381,42.491,403.207,38.692,401.925,50.132z"/>
				<path style="fill:#C3DBF0;" d="M396.102,38.37c-0.213,3.464-3.153,6.437-6.712,6.034c-2.925-0.331-3.566-3.106-3.136-6.185
					c0.339-2.43,1.237-5.828,3.639-6.898C394.172,29.416,396.368,34.04,396.102,38.37z"/>
				<path style="fill:#C3DBF0;" d="M364.789,40.802c-2.085,5.693,2.883,9.817,6.927,4.324c2.136-2.976,1.964-11.152-3.618-8.534
					C366.438,37.377,365.396,39.102,364.789,40.802z"/>
				<path style="fill:#C3DBF0;" d="M376.157,33.013c-1.597,2.786-1.206,8.371,2.77,8.98C390.38,41.322,385.72,19.741,376.157,33.013
					z"/>
			</g>
			<g>
				<path style="fill:#C3DBF0;" d="M487.6,239.8c0.118,2.171-0.607,4.06-2.768,5.122c-3.413,1.677-7.351-1.522-10.712-1.93
					c-3.234-0.393-5.757,1.769-8.647,0.012c-3.906-2.376-0.374-10.271,1.549-12.752C475.864,219.767,486.823,226.843,487.6,239.8z"
					/>
				<path style="fill:#C3DBF0;" d="M495.709,227.361c-0.329,4.549-5.412,8.118-8.153,2.993
					C484.135,221.397,495.253,215.859,495.709,227.361z"/>
				<path style="fill:#C3DBF0;" d="M488.181,216.611c0.311,3.457-2.147,6.838-5.726,6.976c-2.941,0.113-3.993-2.533-4.032-5.642
					c-0.031-2.453,0.345-5.948,2.559-7.367C484.924,208.051,487.792,212.29,488.181,216.611z"/>
				<path style="fill:#C3DBF0;" d="M457.591,223.733c-1.203,5.943,4.329,9.271,7.499,3.231c1.663-3.264,0.261-11.32-4.862-7.891
					C458.705,220.099,457.935,221.961,457.591,223.733z"/>
				<path style="fill:#C3DBF0;" d="M467.656,214.32c-1.159,2.995,0.07,8.457,4.091,8.46
					C482.969,220.392,475.111,199.759,467.656,214.32z"/>
			</g>
			<g>
				<path style="fill:#C3DBF0;" d="M71.485,27.468c-1.162-1.838-1.45-3.84-0.081-5.821c2.162-3.129,7.16-2.256,10.293-3.538
					c3.015-1.234,4.163-4.352,7.543-4.227c4.569,0.169,5.335,8.784,4.866,11.888C91.499,39.235,78.481,38.401,71.485,27.468z"/>
				<path style="fill:#C3DBF0;" d="M70.471,42.282c-1.932-4.132,0.766-9.727,5.659-6.589C83.484,41.845,76.478,52.102,70.471,42.282
					z"/>
				<path style="fill:#C3DBF0;" d="M82.285,47.996c-1.958-2.866-1.46-7.017,1.597-8.882c2.513-1.533,4.721,0.264,6.271,2.96
					c1.223,2.127,2.599,5.361,1.359,7.68C89.303,53.882,84.732,51.578,82.285,47.996z"/>
				<path style="fill:#C3DBF0;" d="M105.519,26.861c-1.847-5.775-8.3-5.983-8.123,0.836c0.14,3.66,5.292,10.01,8.093,4.518
					C106.318,30.577,106.082,28.576,105.519,26.861z"/>
				<path style="fill:#C3DBF0;" d="M101.322,39.988c-0.448-3.18-4.185-7.35-7.697-5.391
					C84.992,42.153,101.914,56.335,101.322,39.988z"/>
			</g>
		</g>
		<g style="clip-path:url(#SVGID_00000041292263898166795930000005862134106352026785_);">
			<g>
				<g>
					
						<ellipse transform="matrix(0.2298 -0.9732 0.9732 0.2298 95.4562 548.8831)" style="fill:#F9FAFB;" cx="394.5" cy="214.135" rx="20.686" ry="20.686"/>
				</g>
				<path style="fill:#EAA8B1;" d="M404.017,209.496l-5.482,0.116l-0.113-5.902c-0.011-0.546-0.43-0.981-0.938-0.97l-6.402,0.135
					c-0.508,0.011-0.91,0.462-0.9,1.009l0.113,5.902l-5.482,0.116c-0.508,0.011-0.911,0.462-0.9,1.009l0.132,6.891
					c0.011,0.546,0.431,0.981,0.938,0.97l5.482-0.116l0.113,5.902c0.01,0.546,0.43,0.981,0.938,0.97l6.402-0.135
					c0.508-0.011,0.91-0.462,0.9-1.009l-0.113-5.902l5.483-0.116c0.508-0.011,0.911-0.462,0.9-1.009l-0.132-6.891
					C404.945,209.92,404.525,209.486,404.017,209.496z"/>
			</g>
			<g>
				<g>
					
						<ellipse transform="matrix(0.2298 -0.9732 0.9732 0.2298 15.9821 191.6946)" style="fill:#F9FAFB;" cx="129.099" cy="85.75" rx="20.686" ry="20.686"/>
				</g>
				<path style="fill:#EAA8B1;" d="M138.617,81.112l-5.482,0.116l-0.113-5.902c-0.011-0.546-0.43-0.981-0.938-0.97l-6.402,0.135
					c-0.508,0.011-0.91,0.462-0.9,1.009l0.113,5.902l-5.482,0.116c-0.508,0.011-0.911,0.462-0.9,1.009l0.132,6.891
					c0.011,0.546,0.431,0.981,0.938,0.97l5.482-0.116l0.113,5.902c0.01,0.546,0.43,0.981,0.938,0.97l6.402-0.135
					c0.508-0.011,0.911-0.463,0.9-1.009l-0.113-5.902l5.483-0.116c0.508-0.011,0.911-0.463,0.9-1.009l-0.132-6.891
					C139.544,81.535,139.124,81.101,138.617,81.112z"/>
			</g>
			<g>
				<g>
					
						<ellipse transform="matrix(0.2298 -0.9732 0.9732 0.2298 146.3007 429.1764)" style="fill:#F9FAFB;" cx="344.294" cy="122.159" rx="20.686" ry="20.686"/>
				</g>
				<g>
					<g>
						<path style="fill:#C3DFF7;" d="M355.332,123.075l-15.831,9.069c-3.012,1.727-6.851,0.684-8.572-2.322
							c-0.861-1.506-1.031-3.216-0.612-4.771c0.419-1.556,1.429-2.94,2.94-3.806l15.831-9.069c3.006-1.721,6.846-0.678,8.572,2.333
							c0.861,1.506,1.032,3.216,0.607,4.766C357.847,120.829,356.838,122.214,355.332,123.075z"/>
					</g>
					<g>
						<path style="fill:#3D63A0;" d="M355.332,123.075l-7.921,4.534l-6.244-10.9l7.921-4.534c3.006-1.721,6.846-0.678,8.572,2.333
							c0.861,1.506,1.032,3.216,0.607,4.766C357.847,120.829,356.838,122.214,355.332,123.075z"/>
					</g>
				</g>
			</g>
			<g>
				<g>
					
						<ellipse transform="matrix(0.2298 -0.9732 0.9732 0.2298 -141.921 214.0177)" style="fill:#F9FAFB;" cx="64.251" cy="196.671" rx="20.686" ry="20.686"/>
				</g>
				<g>
					
						<rect x="37.889" y="160.48" transform="matrix(0.8158 -0.5783 0.5783 0.8158 -87.4393 54.963)" style="fill:#BDD2E7;" width="9.358" height="8.551"/>
					
						<rect x="42.138" y="159.127" transform="matrix(0.8158 -0.5783 0.5783 0.8158 -86.3046 55.8168)" style="fill:#AEC5D8;" width="4.679" height="8.551"/>
					
						<rect x="32.22" y="158.498" transform="matrix(0.8158 -0.5783 0.5783 0.8158 -85.4038 52.262)" style="fill:#BDD2E7;" width="14.25" height="3.42"/>
					<polygon style="fill:#E5F4FF;" points="72.547,195.46 68.918,201.926 61.616,203.209 40.14,172.915 51.072,165.166 					"/>
					<polygon style="fill:#BDD2E7;" points="46.577,168.352 68.052,198.647 65.915,202.454 68.918,201.926 72.547,195.46 
						51.072,165.166 					"/>
					
						<rect x="37.143" y="167.009" transform="matrix(0.8158 -0.5783 0.5783 0.8158 -89.2698 57.3919)" style="fill:#3D63A0;" width="16.643" height="3.665"/>
					<g>
						
							<rect x="42.959" y="173.704" transform="matrix(0.8158 -0.5783 0.5783 0.8158 -92.2345 58.4035)" style="fill:#3D63A0;" width="5.224" height="0.595"/>
						
							<rect x="43.909" y="175.266" transform="matrix(0.8158 -0.5783 0.5783 0.8158 -93.0874 58.8321)" style="fill:#3D63A0;" width="3.828" height="0.595"/>
						
							<rect x="44.73" y="176.424" transform="matrix(0.8158 -0.5783 0.5783 0.8158 -93.6128 59.5284)" style="fill:#3D63A0;" width="3.828" height="0.596"/>
						
							<rect x="45.551" y="177.583" transform="matrix(0.8158 -0.5783 0.5783 0.8158 -94.129 60.2137)" style="fill:#3D63A0;" width="3.828" height="0.595"/>
						
							<rect x="46.372" y="178.741" transform="matrix(0.8158 -0.5783 0.5783 0.8158 -94.6478 60.902)" style="fill:#3D63A0;" width="3.828" height="0.595"/>
						
							<rect x="47.065" y="179.496" transform="matrix(0.8158 -0.5783 0.5783 0.8158 -94.8261 61.8428)" style="fill:#3D63A0;" width="5.224" height="0.595"/>
						
							<rect x="48.015" y="181.058" transform="matrix(0.8158 -0.5783 0.5783 0.8158 -95.6852 62.2786)" style="fill:#3D63A0;" width="3.828" height="0.595"/>
						
							<rect x="48.836" y="182.217" transform="matrix(0.8158 -0.5783 0.5783 0.8158 -96.2021 62.9647)" style="fill:#3D63A0;" width="3.828" height="0.595"/>
						
							<rect x="49.657" y="183.375" transform="matrix(0.8158 -0.5783 0.5783 0.8158 -96.72 63.6521)" style="fill:#3D63A0;" width="3.828" height="0.595"/>
						
							<rect x="50.478" y="184.534" transform="matrix(0.8158 -0.5783 0.5783 0.8158 -97.2413 64.3435)" style="fill:#3D63A0;" width="3.828" height="0.595"/>
						
							<rect x="51.171" y="185.288" transform="matrix(0.8158 -0.5783 0.5783 0.8158 -97.4215 65.2865)" style="fill:#3D63A0;" width="5.224" height="0.595"/>
						
							<rect x="52.121" y="186.85" transform="matrix(0.8158 -0.5783 0.5783 0.8158 -98.2743 65.7146)" style="fill:#3D63A0;" width="3.828" height="0.596"/>
						
							<rect x="52.942" y="188.009" transform="matrix(0.8158 -0.5783 0.5783 0.8158 -98.7974 66.4085)" style="fill:#3D63A0;" width="3.828" height="0.595"/>
						
							<rect x="53.763" y="189.167" transform="matrix(0.8158 -0.5783 0.5783 0.8158 -99.3161 67.0968)" style="fill:#3D63A0;" width="3.828" height="0.595"/>
						
							<rect x="54.585" y="190.326" transform="matrix(0.8158 -0.5783 0.5783 0.8158 -99.8348 67.7851)" style="fill:#3D63A0;" width="3.828" height="0.595"/>
						
							<rect x="55.277" y="191.081" transform="matrix(0.8158 -0.5783 0.5783 0.8158 -100.0169 68.7305)" style="fill:#3D63A0;" width="5.224" height="0.595"/>
						
							<rect x="59.397" y="196.892" transform="matrix(0.8158 -0.5783 0.5783 0.8158 -102.6155 72.1788)" style="fill:#3D63A0;" width="5.224" height="0.595"/>
						
							<rect x="56.227" y="192.643" transform="matrix(0.8158 -0.5783 0.5783 0.8158 -100.8703 69.1593)" style="fill:#3D63A0;" width="3.828" height="0.595"/>
						
							<rect x="57.048" y="193.801" transform="matrix(0.8158 -0.5783 0.5783 0.8158 -101.3909 69.85)" style="fill:#3D63A0;" width="3.828" height="0.595"/>
						
							<rect x="57.869" y="194.96" transform="matrix(0.8158 -0.5783 0.5783 0.8158 -101.9097 70.5383)" style="fill:#3D63A0;" width="3.828" height="0.595"/>
						
							<rect x="58.677" y="196.1" transform="matrix(0.8158 -0.5783 0.5783 0.8158 -102.4173 71.212)" style="fill:#3D63A0;" width="3.828" height="0.595"/>
					</g>
					<polygon style="fill:#BDD2E7;" points="77.096,212.589 76.837,213.971 69.349,203.408 70.174,202.823 					"/>
					<g>
						<g>
							<path style="fill:#BDD2E7;" d="M71.014,203.327l-1.468,1.041c-0.405,0.287-0.965,0.191-1.252-0.213l-0.911-1.285l2.933-2.079
								l0.911,1.285C71.514,202.48,71.419,203.04,71.014,203.327z"/>
							
								<rect x="66.365" y="200.935" transform="matrix(0.8158 -0.5783 0.5783 0.8158 -103.9065 76.8143)" style="fill:#3D63A0;" width="4.546" height="1.191"/>
						</g>
					</g>
				</g>
			</g>
		</g>
	</g>
</g>
</svg>
